PathFileType	4	(X/Y/Z)	Patient4_TMGait_0pt6_01_left_27.trc.trc
DataRate	CameraRate	NumFrames	NumMarkers	Units	OrigDataRate	OrigDataStartFrame	OrigNumFrames
85.365853658537	85.365853658537	4	33	mm	85.365853658537	89	       141
Frame#	Time	Sacral			L.Shoulder			Chest			R.Shoulder			Neck			R.ASIS			L.ASIS			R.Thigh.Superior			R.Thigh.Lateral			R.Thigh.Inferior			R.Patella			L.Thigh.Superior			L.Thigh.Lateral			L.Thigh.Inferior			L.Patella			L.Shank.Superior			L.Shank.Lateral			L.Shank.Inferior			R.Shank.Superior			R.Shank.Lateral			R.Shank.Inferior			R.Heel			R.Midfoot.Superior			R.Midfoot.Lateral			R.Toe			L.Heel			L.Midfoot.Lateral			L.Midfoot.Superior			L.Toe			L.Elbow			L.Wrist			R.Elbow			R.Wrist			
		X1	Y1	Z1	X2	Y2	Z2	X3	Y3	Z3	X4	Y4	Z4	X5	Y5	Z5	X6	Y6	Z6	X7	Y7	Z7	X8	Y8	Z8	X9	Y9	Z9	X10	Y10	Z10	X11	Y11	Z11	X12	Y12	Z12	X13	Y13	Z13	X14	Y14	Z14	X15	Y15	Z15	X16	Y16	Z16	X17	Y17	Z17	X18	Y18	Z18	X19	Y19	Z19	X20	Y20	Z20	X21	Y21	Z21	X22	Y22	Z22	X23	Y23	Z23	X24	Y24	Z24	X25	Y25	Z25	X26	Y26	Z26	X27	Y27	Z27	X28	Y28	Z28	X29	Y29	Z29	X30	Y30	Z30	X31	Y31	Z31	X32	Y32	Z32	X33	Y33	Z33	

89	33.900857142857	753.318031639459	1001.466440600620	496.327665311566	914.809497258440	1438.765201724277	326.536808112380	1018.698894330226	1368.334652923838	486.052758641023	930.816175991493	1431.276221565515	660.415249011607	891.889704309786	1494.003198157798	482.047005909817	982.047522739682	944.735137997916	615.311219971145	966.458705922737	959.767473242330	340.644013858624	1034.676166398692	748.634081565128	587.718397389234	957.503899193670	635.452025522389	644.142853908215	1040.542099048883	588.196049818300	566.669088057562	1044.891519683413	499.970048395875	571.990472460444	1013.545567535665	743.026042733119	364.525422930366	931.411796030722	625.558608523627	298.711619644188	1021.437366895602	543.794561583271	354.284970383547	1014.943828048026	456.509908866765	351.608072777570	944.808544084745	397.909307914123	351.191523544779	801.969768637583	356.934854109484	307.315711859190	786.650568558184	232.582425649125	371.577974033129	1022.234806631785	410.399177119973	577.011336373757	954.373163968401	301.063636371039	632.885686920524	1007.388070745573	210.835806319226	570.075053952183	885.414666874081	41.574516755850	530.702897231702	1055.686159846291	99.460013631617	568.904848081098	968.441547916731	36.335646869546	606.124389049516	1175.805620440911	49.294846797163	595.104374625408	594.044307810212	168.913643133899	417.349393686225	650.935533213702	122.910106539140	337.265444455203	755.989657647495	135.359252339333	355.601304362439	836.533336965672	33.959355749974	329.847685067707	965.799114323310	1094.854119054658	192.693753038528	1182.427848969818	947.396508549853	192.444479242663	876.314882036846	1080.273486047830	762.251231386767	934.725506488525	825.769860459003	758.231421817547	
90	33.912571428571	753.176555516942	1001.731325521329	499.318263706644	912.193904881789	1439.350920804088	328.356726851389	1017.933515851452	1368.908440001370	486.660838576214	931.957673984394	1431.430871007512	662.122471008807	891.226733495361	1494.407901159282	484.311369384250	982.707230764074	945.505041922671	616.259867837543	965.137407686213	959.929523108803	341.330823450108	1033.013339248015	748.028375867983	590.068321494871	954.262423678565	635.443594093368	645.774009067836	1037.038912776338	587.520817435058	568.485208354093	1040.329326181211	499.441259635053	573.416856189404	1017.391586859080	746.251891467660	365.115667750867	939.150760743061	627.013103090044	298.472684378187	1032.046197941188	547.339664417554	353.071429111090	1027.194264873295	459.180362326995	349.968849808869	955.949892889637	400.229381388204	350.056718144199	811.601037547774	362.731456804378	307.520954956079	794.023536896203	238.597874551874	371.539802856591	1017.188744020426	410.002794266900	578.178127748244	948.654720350981	300.955149658705	633.753713400369	1001.135742653130	210.552414447711	570.702126474740	878.313935756094	41.593424171025	530.903140909350	1048.718222685506	99.384548941725	569.188467167824	961.337327131249	36.272887571900	606.318568157704	1168.726586890411	49.095217051767	595.268165799491	600.102897437986	180.610561769437	419.027249015525	654.790575247580	133.098897544392	338.074217143142	760.685284692917	141.701924983310	355.487032437816	837.330719665476	35.268732889647	328.128186246778	958.723952283096	1093.550364541304	196.560400051012	1168.350621363487	935.897720105842	195.787864186468	886.625482944877	1078.890387104585	765.060367625838	955.303425950365	826.871570289078	759.844248040448	
91	33.924285714286	752.937096673030	1001.985655859347	502.162964780802	909.470112806100	1439.849192208031	330.010562632119	1017.084002157219	1369.448290919989	487.085842109646	933.055573450049	1431.552655806431	663.675151582015	890.557778885070	1494.766947784779	486.433619340787	983.205486093694	946.179735124828	617.153519915080	963.795525650129	960.065649810438	341.949299321835	1031.196586542010	747.392655518017	592.200886349360	950.991365335982	635.412318881919	647.270601564329	1033.382171638205	586.848972105901	570.068523333660	1035.644315341659	498.925703713347	574.662060641004	1020.923008725605	749.640636395108	365.511312970089	946.294362326969	628.887982647862	298.093035550415	1041.926243250291	551.371383095571	351.702409374316	1038.897908911613	462.490651458667	348.200613432333	966.946951940600	403.008005708217	348.747047059639	821.379859964579	368.081448652409	307.647037192863	802.395705417710	244.043775080616	371.384477784677	1012.062366669039	409.601457420652	579.176684708098	942.913133515845	300.838472477046	634.490278946622	994.847019941387	210.259292910582	571.222972342862	871.170182867843	41.615622194430	531.093354946568	1041.716899460304	99.277802702389	569.409984790976	954.195416675181	36.218616869085	606.490207777905	1161.620289357800	48.850897823318	595.407579355062	607.801545295908	190.045825947606	420.749792118955	660.579255294742	141.740449724433	338.822771338183	767.072670557827	147.493755673756	355.224583036593	840.749775835528	37.098775864731	326.024288650950	951.431869627560	1092.197347778360	200.290306729578	1153.344298547524	924.532244139295	199.149743086049	897.128569954857	1077.745621461893	767.685347181671	976.153999384091	828.675556859013	761.297056888231	
92	33.936000000000	752.599594001338	1002.269923783436	504.845061069346	906.717277029740	1440.289642318139	331.497082031793	1016.183059942459	1369.974820513347	487.355417414968	934.111696139960	1431.706279871808	665.060917588891	889.890189036725	1495.114972987973	488.379993275924	983.536050677918	946.760827642813	618.021237747504	962.438886774249	960.254963329611	342.571533953832	1029.260460887773	746.763675682999	594.009790526879	947.748308312025	635.393527538871	648.605646010097	1029.599657095485	586.200467771644	571.374169327166	1030.866609708044	498.441035783227	575.693793043212	1024.101771333911	753.188624601083	365.786116170956	952.813853693517	631.163999360236	297.618567709104	1051.033324866758	555.850346441421	350.238244084496	1049.983378479741	466.405722017212	346.336407337062	977.756702544081	406.193845814798	347.290553508267	831.283682197391	372.785665623049	307.651574509269	811.835386889740	248.676675659255	371.049093712929	1006.884886522632	409.211856814190	579.987889653570	937.180573798364	300.734430221004	635.087501647170	988.548692308104	209.975784305297	571.630383118019	864.008600953489	41.646708989147	531.277320059599	1034.700332396222	99.156400790517	569.580349782210	947.040239728867	36.179147480011	606.643040374634	1154.508229667492	48.588730344548	595.532268290928	617.158550747680	196.805577582018	422.336894927767	668.430163872790	148.379992462279	339.393764913634	775.315462844878	152.395396522907	354.742020644244	847.098873802700	39.289053271943	323.599581520549	943.921368152104	1090.841461864646	203.906327317282	1137.401198554485	913.403714712210	202.505678560390	907.796208843217	1076.911400996110	770.073879083129	997.196372209393	831.282648708533	762.536643415308	
